<?xml version="1.0" encoding="utf-8"?>
<!-- Generator: Adobe Illustrator 23.0.1, SVG Export Plug-In . SVG Version: 6.00 Build 0)  -->
<svg version="1.1" id="Layer_1" xmlns="http://www.w3.org/2000/svg" xmlns:xlink="http://www.w3.org/1999/xlink" x="0px" y="0px"
	 viewBox="0 0 143.3 26" style="enable-background:new 0 0 143.3 26;" xml:space="preserve">
<style type="text/css">
	.st0{fill:#FFFFFF;}
</style>
<g>
	<path class="st0" d="M7.1,17.5v7.9H0V0.8h18.4V7H7.1v4.4h10.3v6H7.1V17.5z"/>
	<path class="st0" d="M23.1,22.2c-2.5-2.5-3.8-5.5-3.8-9.1s1.3-6.6,3.8-9.1s5.6-3.7,9.3-3.7c3.7,0,6.7,1.2,9.3,3.7s3.8,5.5,3.8,9.1
		s-1.3,6.7-3.8,9.1s-5.7,3.7-9.3,3.7C28.7,25.9,25.6,24.7,23.1,22.2z M36.5,8.7c-1.1-1.2-2.5-1.8-4.2-1.8c-1.6,0-3,0.6-4.2,1.8
		c-1.1,1.2-1.7,2.7-1.7,4.3s0.6,3.2,1.7,4.4c1.1,1.2,2.5,1.8,4.2,1.8c1.6,0,3-0.6,4.2-1.8c1.2-1.2,1.8-2.7,1.8-4.4
		C38.2,11.4,37.7,9.9,36.5,8.7z"/>
	<path class="st0" d="M54.5,25.4h-7.1V0.8h11.1c2.6,0,4.7,0.8,6.3,2.2s2.4,3.6,2.4,6.3c0,3.4-1.9,6.3-5.2,7.6l7,8.5h-9l-5.5-7.6
		C54.5,17.8,54.5,25.4,54.5,25.4z M54.5,7.1v5.1h2.4c2.1,0,3.2-0.8,3.2-2.5S59,7.1,56.9,7.1H54.5z"/>
	<path class="st0" d="M76.4,11.5v13.8h-6.6V0.8h9.1l5.3,12.7l5.3-12.7h9.1v24.6h-6.7V11.5L86,25.3h-3.7L76.4,11.5z"/>
	<path class="st0" d="M117,21.8h-8.6l-1.1,3.6h-7.1l8.3-24.6h9l8.2,24.6h-7.5L117,21.8z M112.7,7.7l-2.6,8.4h5.1L112.7,7.7z"/>
	<path class="st0" d="M129.4,25.4V7.1h-6.8V0.8h20.7V7h-6.8v18.3h-7.1V25.4z"/>
</g>
</svg>
