<?xml version="1.0" encoding="utf-8"?>
<!-- Generator: Adobe Illustrator 23.0.1, SVG Export Plug-In . SVG Version: 6.00 Build 0)  -->
<svg version="1.1" id="Layer_1" xmlns="http://www.w3.org/2000/svg" xmlns:xlink="http://www.w3.org/1999/xlink" x="0px" y="0px"
	 viewBox="0 0 242 68" style="enable-background:new 0 0 242 68;" xml:space="preserve">
<style type="text/css">
	.st0{fill:#FFFFFF;}
</style>
<g>
	<path class="st0" d="M16.3,28.8v32.7H0.6V3.4h21.5l12.6,29.9L47.3,3.4h21.5v58.1H53V28.8L39,61.5h-8.7L16.3,28.8z"/>
	<path class="st0" d="M72.8,3.4h44.3v14.2H89.5v7.6h25.1v14.1H89.5v7.9h27.8v14.2H72.8V3.4z"/>
	<path class="st0" d="M161.6,60.3c-3.7,1.6-7.8,2.4-12.3,2.4c-8.6,0-15.9-2.9-21.9-8.6c-6-5.8-9.1-13.1-9.1-21.6
		c0-8.5,3.1-15.7,9.1-21.5c6-5.8,13.3-8.7,21.9-8.7c8.6,0,15.9,2.9,22,8.7c6,5.8,9.1,13.1,9.1,21.5c0,7.7-2.5,14.4-7.5,20.1l7.3,8.3
		l-13.6,5L161.6,60.3z M149.9,47l-5.8-6.7l13.6-5l3.8,4.3c1.2-2.3,1.8-4.7,1.8-7.2c0-4-1.4-7.5-4.2-10.3c-2.7-2.9-6-4.3-9.8-4.3
		s-7,1.4-9.8,4.3c-2.7,2.9-4.1,6.3-4.1,10.3c0,4,1.4,7.5,4.1,10.3c2.7,2.8,6,4.2,9.8,4.2H149.9z"/>
	<path class="st0" d="M221,53h-20.3l-2.6,8.5h-16.9l19.5-58.1H222l19.4,58.1h-17.8L221,53z M210.8,19.8l-6.1,19.7h12.1L210.8,19.8z"
		/>
</g>
</svg>
