<?xml version="1.0" encoding="utf-8"?>
<!-- Generator: Adobe Illustrator 19.2.1, SVG Export Plug-In . SVG Version: 6.00 Build 0)  -->
<svg version="1.1" id="Layer_1" xmlns="http://www.w3.org/2000/svg" xmlns:xlink="http://www.w3.org/1999/xlink" x="0px" y="0px"
	 width="258px" height="54px" viewBox="0 0 258 54" style="enable-background:new 0 0 258 54;" xml:space="preserve">
<style type="text/css">
	.st0{fill:#FFFFFF;}
</style>
<g>
	<path class="st0" d="M0,41V31h18.6V41H0z"/>
	<path class="st0" d="M32.4,53.2V38.1L17.9,11.6h13l7.5,15.7l7.7-15.7h12.6L44.3,38.2v15H32.4z"/>
	<path class="st0" d="M62.6,11.6h31.8v10.2H74.5v5.5h18v10.1h-18V43h19.9v10.2H62.6V11.6z"/>
	<path class="st0" d="M112.8,31.4v21.8h-11.6V11.6h13.6l13.1,22.3V11.6h11.6v41.6h-13.6L112.8,31.4z"/>
	<path class="st0" d="M146.9,53.2V11.6h12v41.6H146.9z M147.4,8.9V0.8h10.8v8.1H147.4z"/>
	<path class="st0" d="M166.1,11.6h12v31.1h17.6v10.6h-29.6V11.6z"/>
	<path class="st0" d="M200,53.2V11.6h12v41.6H200z M200.5,8.9V0.8h10.8v8.1H200.5z"/>
	<path class="st0" d="M244.1,11.6H258l-15.4,20.6l15.3,21.1h-14.8l-11.9-17v17h-12V11.6h12v18.5L244.1,11.6z"/>
</g>
</svg>
