<?xml version="1.0" encoding="utf-8"?>
<!-- Generator: Adobe Illustrator 23.0.1, SVG Export Plug-In . SVG Version: 6.00 Build 0)  -->
<svg version="1.1" id="Layer_1" xmlns="http://www.w3.org/2000/svg" xmlns:xlink="http://www.w3.org/1999/xlink" x="0px" y="0px"
	 viewBox="0 0 156.5 26" style="enable-background:new 0 0 156.5 26;" xml:space="preserve">
<style type="text/css">
	.st0{fill:#FFFFFF;}
</style>
<g>
	<path class="st0" d="M0,18.2v-6h11v6H0z"/>
	<path class="st0" d="M20.3,17.5v7.9h-7.1V0.8h18.4v6.2H20.3v4.4h10.3v6H20.3z"/>
	<path class="st0" d="M36.3,22.2c-2.5-2.5-3.8-5.5-3.8-9.1c0-3.6,1.3-6.6,3.8-9.1c2.5-2.5,5.6-3.7,9.3-3.7c3.7,0,6.7,1.2,9.3,3.7
		s3.8,5.5,3.8,9.1c0,3.6-1.3,6.7-3.8,9.1c-2.5,2.4-5.7,3.7-9.3,3.7C41.9,25.9,38.8,24.7,36.3,22.2z M49.7,8.7
		c-1.1-1.2-2.5-1.8-4.2-1.8c-1.6,0-3,0.6-4.2,1.8c-1.1,1.2-1.7,2.7-1.7,4.3s0.6,3.2,1.7,4.4c1.1,1.2,2.5,1.8,4.2,1.8
		c1.6,0,3-0.6,4.2-1.8c1.2-1.2,1.8-2.7,1.8-4.4C51.4,11.4,50.9,9.9,49.7,8.7z"/>
	<path class="st0" d="M67.7,25.4h-7.1V0.8h11.1c2.6,0,4.7,0.8,6.3,2.2s2.4,3.6,2.4,6.3c0,3.4-1.9,6.3-5.2,7.6l7,8.5h-9l-5.5-7.6
		V25.4z M67.7,7.1v5.1h2.4c2.1,0,3.2-0.8,3.2-2.5c0-1.7-1.1-2.6-3.2-2.6H67.7z"/>
	<path class="st0" d="M89.6,11.5v13.8H83V0.8h9.1l5.3,12.7l5.3-12.7h9.1v24.6h-6.7V11.5l-5.9,13.8h-3.7L89.6,11.5z"/>
	<path class="st0" d="M130.2,21.8h-8.6l-1.1,3.6h-7.1l8.3-24.6h9l8.2,24.6h-7.5L130.2,21.8z M125.9,7.7l-2.6,8.4h5.1L125.9,7.7z"/>
	<path class="st0" d="M142.6,25.4V7.1h-6.8V0.8h20.7v6.2h-6.8v18.3H142.6z"/>
</g>
</svg>
