<?xml version="1.0" encoding="utf-8"?>
<!-- Generator: Adobe Illustrator 19.2.1, SVG Export Plug-In . SVG Version: 6.00 Build 0)  -->
<svg version="1.1" id="Layer_1" xmlns="http://www.w3.org/2000/svg" xmlns:xlink="http://www.w3.org/1999/xlink" x="0px" y="0px"
	 width="95px" height="26px" viewBox="0 0 95 26" style="enable-background:new 0 0 95 26;" xml:space="preserve">
<style type="text/css">
	.st0{fill:#FFFFFF;}
</style>
<g>
	<path class="st0" d="M0,18.2v-6.1h11.2v6.1H0z"/>
	<path class="st0" d="M16.2,0.5h10.6c4.1,0,7.3,1.2,9.6,3.5c2.4,2.4,3.7,5.3,3.7,8.8c0,3.6-1.2,6.6-3.7,9c-2.4,2.4-5.6,3.6-9.6,3.6
		H16.2V0.5z M23.4,6.8v12.3h3.4c1.8,0,3.2-0.6,4.3-1.7c1.1-1.1,1.6-2.6,1.6-4.4c0-1.8-0.5-3.2-1.6-4.4c-1.1-1.2-2.5-1.8-4.3-1.8
		H23.4z"/>
	<path class="st0" d="M59,21.9h-8.8l-1.1,3.7h-7.3l8.4-25h9.2l8.4,25h-7.7L59,21.9z M54.6,7.5L52,16.1h5.2L54.6,7.5z"/>
	<path class="st0" d="M71.1,0.5h10.6c4.1,0,7.3,1.2,9.6,3.5c2.4,2.4,3.7,5.3,3.7,8.8c0,3.6-1.2,6.6-3.7,9c-2.4,2.4-5.6,3.6-9.6,3.6
		H71.1V0.5z M78.3,6.8v12.3h3.4c1.8,0,3.2-0.6,4.3-1.7c1.1-1.1,1.6-2.6,1.6-4.4c0-1.8-0.5-3.2-1.6-4.4c-1.1-1.2-2.5-1.8-4.3-1.8
		H78.3z"/>
</g>
</svg>
