<?xml version="1.0" encoding="utf-8"?>
<!-- Generator: Adobe Illustrator 23.0.1, SVG Export Plug-In . SVG Version: 6.00 Build 0)  -->
<svg version="1.1" id="Layer_1" xmlns="http://www.w3.org/2000/svg" xmlns:xlink="http://www.w3.org/1999/xlink" x="0px" y="0px"
	 viewBox="0 0 240.1 53.3" style="enable-background:new 0 0 240.1 53.3;" xml:space="preserve">
<style type="text/css">
	.st0{fill:#FFFFFF;}
</style>
<g>
	<path class="st0" d="M14.5,52.8V37.7L0,11.2h13l7.5,15.7l7.7-15.7h12.6L26.4,37.8v15H14.5z"/>
	<path class="st0" d="M44.7,11.2h31.8v10.2H56.6v5.5h18V37h-18v5.6h19.9v10.2H44.7V11.2z"/>
	<path class="st0" d="M94.9,31v21.8H83.3V11.2h13.6L110,33.5V11.2h11.6v41.6H108L94.9,31z"/>
	<path class="st0" d="M129,52.8V11.2h12v41.6C141,52.8,129,52.8,129,52.8z M129.5,8.5V0.4h10.8v8.1C140.3,8.5,129.5,8.5,129.5,8.5z"
		/>
	<path class="st0" d="M148.2,11.2h12v31.1h17.6v10.6h-29.6V11.2z"/>
	<path class="st0" d="M182.1,52.8V11.2h12v41.6C194.1,52.8,182.1,52.8,182.1,52.8z M182.6,8.5V0.4h10.8v8.1
		C193.4,8.5,182.6,8.5,182.6,8.5z"/>
	<path class="st0" d="M226.2,11.2h13.9l-15.4,20.6L240,52.9h-14.8l-11.9-17v17h-12V11.2h12v18.5L226.2,11.2z"/>
</g>
</svg>
