<?xml version="1.0" encoding="utf-8"?>
<!-- Generator: Adobe Illustrator 23.0.1, SVG Export Plug-In . SVG Version: 6.00 Build 0)  -->
<svg version="1.1" id="Layer_1" xmlns="http://www.w3.org/2000/svg" xmlns:xlink="http://www.w3.org/1999/xlink" x="0px" y="0px"
	 viewBox="0 0 78.8 26" style="enable-background:new 0 0 78.8 26;" xml:space="preserve">
<style type="text/css">
	.st0{fill:#FFFFFF;}
</style>
<g>
	<path class="st0" d="M0,0.5h10.6c4.1,0,7.3,1.2,9.6,3.5c2.4,2.4,3.7,5.3,3.7,8.8c0,3.6-1.2,6.6-3.7,9c-2.4,2.4-5.6,3.6-9.6,3.6H0
		V0.5z M7.2,6.8v12.3h3.4c1.8,0,3.2-0.6,4.3-1.7s1.6-2.6,1.6-4.4S16,9.8,14.9,8.6s-2.5-1.8-4.3-1.8H7.2z"/>
	<path class="st0" d="M42.8,21.9H34l-1.1,3.7h-7.3l8.4-25h9.2l8.4,25h-7.7L42.8,21.9z M38.4,7.5l-2.6,8.6H41L38.4,7.5z"/>
	<path class="st0" d="M54.9,0.5h10.6c4.1,0,7.3,1.2,9.6,3.5c2.4,2.4,3.7,5.3,3.7,8.8c0,3.6-1.2,6.6-3.7,9c-2.4,2.4-5.6,3.6-9.6,3.6
		H54.9V0.5z M62.1,6.8v12.3h3.4c1.8,0,3.2-0.6,4.3-1.7s1.6-2.6,1.6-4.4s-0.5-3.2-1.6-4.4c-1.1-1.2-2.5-1.8-4.3-1.8H62.1z"/>
</g>
</svg>
